<svg width="800" height="800" viewBox="0 0 24 24" xmlns="http://www.w3.org/2000/svg">
  <defs>
    <clipPath id="top-half">
      <rect x="0" y="0" width="24" height="11.25"/>
    </clipPath>

    <clipPath id="bottom-half">
      <rect x="0" y="11.25" width="24" height="12.75"/>
    </clipPath>
  </defs>


  <g clip-path="url(#top-half)">
    <path
      d="M12 5.49877C16.4998 0.662637 22 3.34931 22 9.2604C22 12.5214 18.9604 15.7273 15.038 19.3705C13.7061 20.4567 13.0401 20.9998 11.9998 20.9998C10.9595 20.9998 10.2935 20.4567 8.9615 19.3705C5.03957 15.7273 2 12.5214 2 9.26044C2 3.3495 7.50016 0.662637 12 5.49877Z"
      fill="blue"/>
  </g>


  <g clip-path="url(#bottom-half)">
    <path
      d="M12 5.49877C16.4998 0.662637 22 3.34931 22 9.2604C22 12.5214 18.9604 15.7273 15.038 19.3705C13.7061 20.4567 13.0401 20.9998 11.9998 20.9998C10.9595 20.9998 10.2935 20.4567 8.9615 19.3705C5.03957 15.7273 2 12.5214 2 9.26044C2 3.3495 7.50016 0.662637 12 5.49877Z"
      fill="yellow"/>
  </g>
</svg>



